<svg width="1440" height="1302" viewBox="0 0 1440 1302" fill="none" xmlns="http://www.w3.org/2000/svg">
<rect width="3842" height="1301" transform="translate(-1202)" fill="white"/>
<path d="M2640 0H-1201.5V412.5L2640 1301V0Z" fill="url(#paint0_linear)"/>
<mask id="mask0" mask-type="alpha" maskUnits="userSpaceOnUse" x="-1200" y="0" width="3842" height="1302">
<path d="M2641.5 0H-1200V413L2641.5 1301.5V0Z" fill="url(#paint1_linear)"/>
</mask>
<g mask="url(#mask0)">
<g filter="url(#filter0_f)">
<path fill-rule="evenodd" clip-rule="evenodd" d="M388.622 1020.61L-40.1876 498.147L524.141 126.151L952.951 648.617L388.622 1020.61Z" fill="url(#paint2_radial)"/>
</g>
</g>
<g clip-path="url(#clip0)">
<mask id="mask1" mask-type="alpha" maskUnits="userSpaceOnUse" x="915" y="1" width="1726" height="1300">
<path d="M2640 1301L915 902L1797 453L2640 1.00012L2640 1301Z" fill="#C4C4C4"/>
</mask>
<g mask="url(#mask1)">
<path fill-rule="evenodd" clip-rule="evenodd" d="M4106.71 563.378L4106.72 563.397L4621.43 300.991L4618.7 295.645L4143.99 537.664L4143.98 537.645L3629.28 800.051L3629.3 800.108L3156.02 1041.4L3155.9 1041.18L2641.2 1303.58L2643.92 1308.93L3138.17 1056.95L3138.28 1057.17L3652.99 794.768L3652.96 794.711L4106.71 563.378ZM4079.45 557.079L4079.46 557.099L4594.16 294.692L4591.44 289.346L4116.72 531.366L4116.71 531.346L3602.01 793.753L3602.04 793.809L3128.75 1035.1L3128.64 1034.88L2613.93 1297.28L2616.65 1302.63L3110.9 1050.65L3111.02 1050.88L3625.72 788.469L3625.69 788.413L4079.45 557.079ZM4052.18 550.781L4052.19 550.8L4566.89 288.394L4564.17 283.047L4089.45 525.067L4089.44 525.047L3574.74 787.454L3574.77 787.511L3101.48 1028.8L3101.37 1028.58L2586.67 1290.98L2589.39 1296.33L3083.64 1044.35L3083.75 1044.58L3598.45 782.17L3598.42 782.114L4052.18 550.781ZM4024.91 544.482L4024.92 544.501L4539.62 282.095L4536.9 276.749L4062.19 518.768L4062.18 518.749L3547.47 781.155L3547.5 781.212L3074.22 1022.5L3074.1 1022.28L2559.4 1284.69L2562.12 1290.03L3056.37 1038.05L3056.48 1038.28L3571.19 775.872L3571.16 775.815L4024.91 544.482ZM3997.64 538.183L3997.65 538.203L4512.36 275.796L4509.64 270.45L4034.92 512.469L4034.91 512.45L3520.21 774.857L3520.24 774.913L3046.95 1016.2L3046.84 1015.98L2532.13 1278.39L2534.85 1283.73L3029.1 1031.76L3029.22 1031.98L3543.92 769.573L3543.89 769.516L3997.64 538.183ZM3970.38 531.884L3970.39 531.904L4485.09 269.497L4482.37 264.151L4007.65 506.171L4007.64 506.151L3492.94 768.558L3492.97 768.614L3019.68 1009.91L3019.57 1009.68L2504.86 1272.09L2507.59 1277.43L3001.83 1025.46L3001.95 1025.68L3516.65 763.274L3516.62 763.218L3970.38 531.884ZM3943.11 525.586L3943.12 525.605L4457.82 263.199L4455.1 257.853L3980.39 499.872L3980.38 499.853L3465.67 762.259L3465.7 762.316L2992.42 1003.61L2992.3 1003.38L2477.6 1265.79L2480.32 1271.14L2974.57 1019.16L2974.68 1019.38L3489.39 756.975L3489.36 756.919L3943.11 525.586ZM3915.84 519.287L3915.85 519.306L4430.56 256.9L4427.83 251.554L3953.12 493.573L3953.11 493.554L3438.41 755.96L3438.44 756.017L2965.15 997.308L2965.03 997.084L2450.33 1259.49L2453.05 1264.84L2947.3 1012.86L2947.41 1013.08L3462.12 750.677L3462.09 750.62L3915.84 519.287ZM3888.58 512.988L3888.59 513.008L4403.29 250.601L4400.57 245.255L3925.85 487.275L3925.84 487.255L3411.14 749.662L3411.17 749.718L2937.88 991.01L2937.77 990.785L2423.06 1253.19L2425.79 1258.54L2920.03 1006.56L2920.15 1006.78L3434.85 744.378L3434.82 744.321L3888.58 512.988ZM3861.31 506.689L3861.32 506.709L4376.02 244.302L4373.3 238.956L3898.59 480.976L3898.58 480.956L3383.87 743.363L3383.9 743.419L2910.61 984.711L2910.5 984.487L2395.8 1246.89L2398.52 1252.24L2892.77 1000.26L2892.88 1000.49L3407.58 738.079L3407.56 738.023L3861.31 506.689ZM3834.04 500.391L3834.05 500.41L4348.76 238.004L4346.03 232.658L3871.32 474.677L3871.31 474.658L3356.61 737.064L3356.63 737.121L2883.35 978.412L2883.23 978.188L2368.53 1240.59L2371.25 1245.94L2865.5 993.963L2865.61 994.187L3380.32 731.781L3380.29 731.724L3834.04 500.391ZM3806.78 494.092L3806.79 494.111L4321.49 231.705L4318.77 226.359L3844.05 468.378L3844.04 468.359L3329.34 730.765L3329.37 730.822L2856.08 972.113L2855.97 971.889L2341.26 1234.3L2343.99 1239.64L2838.23 987.664L2838.35 987.888L3353.05 725.482L3353.02 725.425L3806.78 494.092ZM3779.51 487.793L3779.52 487.813L4294.22 225.406L4291.5 220.06L3816.79 462.08L3816.78 462.06L3302.07 724.467L3302.1 724.523L2828.81 965.815L2828.7 965.59L2314 1228L2316.72 1233.34L2810.97 981.365L2811.08 981.59L3325.78 719.183L3325.75 719.127L3779.51 487.793ZM3752.24 481.495L3752.25 481.514L4266.96 219.108L4264.23 213.761L3789.52 455.781L3789.51 455.761L3274.8 718.168L3274.83 718.224L2801.55 959.516L2801.43 959.292L2286.73 1221.7L2289.45 1227.04L2783.7 975.067L2783.81 975.291L3298.52 712.884L3298.49 712.828L3752.24 481.495ZM3697.71 468.897L3697.72 468.917L4212.42 206.51L4209.7 201.164L3734.98 443.183L3734.97 443.164L3220.27 705.57L3220.3 705.627L2747.01 946.919L2746.9 946.694L2232.2 1209.1L2234.92 1214.45L2729.17 962.469L2729.28 962.693L3243.98 700.287L3243.95 700.23L3697.71 468.897ZM3643.17 456.3L3643.18 456.319L4157.89 193.913L4155.17 188.567L3680.45 430.586L3680.44 430.567L3165.74 692.973L3165.77 693.03L2692.48 934.321L2692.36 934.097L2177.66 1196.5L2180.38 1201.85L2674.63 949.872L2674.75 950.096L3189.45 687.69L3189.42 687.633L3643.17 456.3ZM3588.64 443.702L3588.65 443.722L4103.35 181.315L4100.63 175.969L3625.92 417.989L3625.91 417.969L3111.2 680.376L3111.23 680.432L2637.94 921.724L2637.83 921.499L2123.13 1183.91L2125.85 1189.25L2620.1 937.274L2620.21 937.499L3134.91 675.092L3134.89 675.036L3588.64 443.702ZM3534.11 431.105L3534.12 431.124L4048.82 168.718L4046.1 163.372L3571.38 405.391L3571.37 405.372L3056.67 667.778L3056.7 667.835L2583.41 909.126L2583.3 908.902L2068.59 1171.31L2071.32 1176.65L2565.56 924.677L2565.68 924.901L3080.38 662.495L3080.35 662.438L3534.11 431.105ZM3479.57 418.507L3479.58 418.527L3994.29 156.12L3991.56 150.774L3516.85 392.794L3516.84 392.774L3002.14 655.181L3002.16 655.237L2528.88 896.529L2528.76 896.305L2014.06 1158.71L2016.78 1164.06L2511.03 912.079L2511.14 912.304L3025.85 649.897L3025.82 649.841L3479.57 418.507ZM3425.04 405.91L3425.05 405.929L3939.75 143.523L3937.03 138.177L3462.31 380.196L3462.3 380.177L2947.6 642.583L2947.63 642.64L2474.34 883.931L2474.23 883.707L1959.53 1146.11L1962.25 1151.46L2456.5 899.482L2456.61 899.706L2971.31 637.3L2971.28 637.243L3425.04 405.91ZM3370.5 393.312L3370.51 393.332L3885.22 130.925L3882.5 125.579L3407.78 367.599L3407.77 367.579L2893.07 629.986L2893.1 630.042L2419.81 871.334L2419.69 871.11L1904.99 1133.52L1907.71 1138.86L2401.96 886.884L2402.08 887.109L2916.78 624.702L2916.75 624.646L3370.5 393.312ZM3315.97 380.715L3315.98 380.734L3830.68 118.328L3827.96 112.982L3353.25 355.001L3353.24 354.982L2838.53 617.388L2838.56 617.445L2365.28 858.737L2365.16 858.512L1850.46 1120.92L1853.18 1126.26L2347.43 874.287L2347.54 874.511L2862.25 612.105L2862.22 612.048L3315.97 380.715ZM3261.44 368.118L3261.45 368.137L3776.15 105.73L3773.43 100.384L3298.71 342.404L3298.7 342.384L2784 604.791L2784.03 604.847L2310.74 846.139L2310.63 845.915L1795.92 1108.32L1798.65 1113.67L2292.89 861.69L2293.01 861.914L2807.71 599.507L2807.68 599.451L3261.44 368.118ZM3206.9 355.52L3206.91 355.539L3721.62 93.133L3718.89 87.787L3244.18 329.806L3244.17 329.787L2729.47 592.193L2729.49 592.25L2256.21 833.542L2256.09 833.317L1741.39 1095.72L1744.11 1101.07L2238.36 849.092L2238.47 849.316L2753.18 586.91L2753.15 586.853L3206.9 355.52ZM3152.37 342.923L3152.38 342.942L3667.08 80.5356L3664.36 75.1895L3189.65 317.209L3189.64 317.189L2674.93 579.596L2674.96 579.653L2201.67 820.944L2201.56 820.72L1686.86 1083.13L1689.58 1088.47L2183.83 836.495L2183.94 836.719L2698.64 574.312L2698.61 574.256L3152.37 342.923ZM3097.83 330.325L3097.84 330.345L3612.55 67.9381L3609.83 62.5921L3135.11 304.611L3135.1 304.592L2620.4 566.999L2620.43 567.055L2147.14 808.347L2147.03 808.122L1632.32 1070.53L1635.04 1075.87L2129.29 823.897L2129.41 824.121L2644.11 561.715L2644.08 561.658L3097.83 330.325ZM3043.3 317.728L3043.31 317.747L3558.01 55.3407L3555.29 49.9946L3080.58 292.014L3080.57 291.995L2565.86 554.401L2565.89 554.458L2092.61 795.749L2092.49 795.525L1577.79 1057.93L1580.51 1063.28L2074.76 811.3L2074.87 811.524L2589.58 549.118L2589.55 549.061L3043.3 317.728ZM2988.77 305.13L2988.78 305.15L3503.48 42.7432L3500.76 37.3971L3026.04 279.416L3026.03 279.397L2511.33 541.804L2511.36 541.86L2038.07 783.152L2037.96 782.927L1523.25 1045.33L1525.98 1050.68L2020.22 798.702L2020.34 798.927L2535.04 536.52L2535.01 536.464L2988.77 305.13ZM2934.23 292.533L2934.24 292.552L3448.95 30.1458L3446.22 24.7997L2971.51 266.819L2971.5 266.8L2456.8 529.206L2456.82 529.263L1983.54 770.554L1983.42 770.33L1468.72 1032.74L1471.44 1038.08L1965.69 786.105L1965.8 786.329L2480.51 523.923L2480.48 523.866L2934.23 292.533ZM2879.7 279.935L2879.71 279.955L3394.41 17.5484L3391.69 12.2022L2916.98 254.222L2916.97 254.202L2402.26 516.609L2402.29 516.665L1929 757.957L1928.89 757.733L1414.19 1020.14L1416.91 1025.49L1911.16 773.507L1911.27 773.732L2425.97 511.325L2425.95 511.269L2879.7 279.935ZM2825.17 267.338L2825.18 267.357L3339.88 4.95087L3337.16 -0.39521L2862.44 241.624L2862.43 241.605L2347.73 504.011L2347.76 504.068L1874.47 745.359L1874.36 745.135L1359.65 1007.54L1362.37 1012.89L1856.62 760.91L1856.74 761.134L2371.44 498.728L2371.41 498.671L2825.17 267.338ZM2770.63 254.74L2770.64 254.76L3285.34 -7.64656L3282.62 -12.9926L2807.91 229.027L2807.9 229.007L2293.19 491.414L2293.22 491.47L1819.94 732.762L1819.82 732.538L1305.12 994.944L1307.84 1000.29L1802.09 748.312L1802.2 748.537L2316.91 486.13L2316.88 486.074L2770.63 254.74ZM3724.97 475.196L3724.98 475.215L4239.69 212.809L4236.97 207.463L3762.25 449.482L3762.24 449.463L3247.54 711.869L3247.57 711.926L2774.28 953.217L2774.17 952.993L2259.46 1215.4L2262.18 1220.75L2756.43 968.768L2756.55 968.992L3271.25 706.586L3271.22 706.529L3724.97 475.196ZM3670.44 462.598L3670.45 462.618L4185.15 200.211L4182.43 194.865L3707.72 436.885L3707.71 436.865L3193 699.272L3193.03 699.328L2719.75 940.62L2719.63 940.396L2204.93 1202.8L2207.65 1208.15L2701.9 956.171L2702.01 956.395L3216.72 693.988L3216.69 693.932L3670.44 462.598ZM3615.91 450.001L3615.92 450.02L4130.62 187.614L4127.9 182.268L3653.18 424.287L3653.17 424.268L3138.47 686.674L3138.5 686.731L2665.21 928.022L2665.1 927.798L2150.39 1190.2L2153.12 1195.55L2647.36 943.573L2647.48 943.797L3162.18 681.391L3162.15 681.334L3615.91 450.001ZM3561.37 437.404L3561.38 437.423L4076.09 175.016L4073.36 169.67L3598.65 411.69L3598.64 411.67L3083.94 674.077L3083.97 674.133L2610.68 915.425L2610.56 915.201L2095.86 1177.61L2098.58 1182.95L2592.83 930.976L2592.94 931.2L3107.65 668.793L3107.62 668.737L3561.37 437.404ZM3506.84 424.806L3506.85 424.826L4021.55 162.419L4018.83 157.073L3544.12 399.092L3544.11 399.073L3029.4 661.479L3029.43 661.536L2556.14 902.827L2556.03 902.603L2041.33 1165.01L2044.05 1170.36L2538.3 918.378L2538.41 918.602L3053.11 656.196L3053.09 656.139L3506.84 424.806ZM3452.31 412.209L3452.32 412.228L3967.02 149.822L3964.3 144.475L3489.58 386.495L3489.57 386.475L2974.87 648.882L2974.9 648.939L2501.61 890.23L2501.5 890.006L1986.79 1152.41L1989.51 1157.76L2483.76 905.781L2483.88 906.005L2998.58 643.598L2998.55 643.542L3452.31 412.209ZM3397.77 399.611L3397.78 399.631L3912.48 137.224L3909.76 131.878L3435.05 373.897L3435.04 373.878L2920.33 636.285L2920.36 636.341L2447.08 877.633L2446.96 877.408L1932.26 1139.81L1934.98 1145.16L2429.23 893.183L2429.34 893.407L2944.05 631.001L2944.02 630.944L3397.77 399.611ZM3343.24 387.014L3343.25 387.033L3857.95 124.627L3855.23 119.281L3380.51 361.3L3380.5 361.281L2865.8 623.687L2865.83 623.744L2392.54 865.035L2392.43 864.811L1877.72 1127.22L1880.45 1132.56L2374.69 880.586L2374.81 880.81L2889.51 618.404L2889.48 618.347L3343.24 387.014ZM3288.7 374.416L3288.71 374.436L3803.42 112.029L3800.69 106.683L3325.98 348.703L3325.97 348.683L2811.27 611.09L2811.3 611.146L2338.01 852.438L2337.89 852.213L1823.19 1114.62L1825.91 1119.97L2320.16 867.988L2320.27 868.213L2834.98 605.806L2834.95 605.75L3288.7 374.416ZM3234.17 361.819L3234.18 361.838L3748.88 99.4318L3746.16 94.0857L3271.45 336.105L3271.44 336.086L2756.73 598.492L2756.76 598.549L2283.47 839.84L2283.36 839.616L1768.66 1102.02L1771.38 1107.37L2265.63 855.391L2265.74 855.615L2780.44 593.209L2780.42 593.152L3234.17 361.819ZM3179.64 349.221L3179.65 349.241L3694.35 86.8343L3691.63 81.4882L3216.91 323.508L3216.9 323.488L2702.2 585.895L2702.23 585.951L2228.94 827.243L2228.83 827.018L1714.12 1089.43L1716.85 1094.77L2211.09 842.793L2211.21 843.018L2725.91 580.611L2725.88 580.555L3179.64 349.221ZM3125.1 336.624L3125.11 336.643L3639.82 74.2369L3637.09 68.8908L3162.38 310.91L3162.37 310.891L2647.66 573.297L2647.69 573.354L2174.41 814.645L2174.29 814.421L1659.59 1076.83L1662.31 1082.17L2156.56 830.196L2156.67 830.42L2671.38 568.014L2671.35 567.957L3125.1 336.624ZM3070.57 324.026L3070.58 324.046L3585.28 61.6394L3582.56 56.2933L3107.84 298.313L3107.83 298.293L2593.13 560.7L2593.16 560.756L2119.87 802.048L2119.76 801.824L1605.05 1064.23L1607.78 1069.58L2102.02 817.598L2102.14 817.823L2616.84 555.416L2616.81 555.36L3070.57 324.026ZM3016.03 311.429L3016.04 311.448L3530.75 49.042L3528.02 43.6959L3053.31 285.715L3053.3 285.696L2538.6 548.102L2538.63 548.159L2065.34 789.451L2065.22 789.226L1550.52 1051.63L1553.24 1056.98L2047.49 805.001L2047.61 805.225L2562.31 542.819L2562.28 542.762L3016.03 311.429ZM2961.5 298.832L2961.51 298.851L3476.21 36.4445L3473.49 31.0984L2998.78 273.118L2998.77 273.098L2484.06 535.505L2484.09 535.561L2010.8 776.853L2010.69 776.629L1495.99 1039.04L1498.71 1044.38L1992.96 792.404L1993.07 792.628L2507.77 530.221L2507.75 530.165L2961.5 298.832ZM2906.97 286.234L2906.98 286.253L3421.68 23.847L3418.96 18.501L2944.24 260.52L2944.23 260.501L2429.53 522.907L2429.56 522.964L1956.27 764.256L1956.16 764.031L1441.45 1026.44L1444.18 1031.78L1938.42 779.806L1938.54 780.03L2453.24 517.624L2453.21 517.567L2906.97 286.234ZM2852.43 273.637L2852.44 273.656L3367.15 11.2496L3364.42 5.90353L2889.71 247.923L2889.7 247.904L2375 510.31L2375.02 510.367L1901.74 751.658L1901.62 751.434L1386.92 1013.84L1389.64 1019.19L1883.89 767.209L1884 767.433L2398.71 505.026L2398.68 504.97L2852.43 273.637ZM2797.9 261.039L2797.91 261.059L3312.61 -1.34782L3309.89 -6.69395L2835.17 235.325L2835.16 235.306L2320.46 497.713L2320.49 497.769L1847.2 739.061L1847.09 738.836L1332.39 1001.24L1335.11 1006.59L1829.36 754.611L1829.47 754.835L2344.17 492.429L2344.14 492.372L2797.9 261.039ZM2743.36 248.442L2743.37 248.461L3258.08 -13.9453L3255.36 -19.2914L2780.64 222.728L2780.63 222.709L2265.93 485.115L2265.96 485.172L1792.67 726.463L1792.55 726.239L1277.85 988.645L1280.57 993.991L1774.82 742.014L1774.94 742.238L2289.64 479.832L2289.61 479.775L2743.36 248.442ZM2716.1 242.143L2716.11 242.162L3230.81 -20.244L3228.09 -25.5901L2753.37 216.429L2753.36 216.41L2238.66 478.816L2238.69 478.873L1765.4 720.165L1765.29 719.94L1250.58 982.347L1253.31 987.693L1747.55 735.715L1747.67 735.939L2262.37 473.533L2262.34 473.476L2716.1 242.143ZM2688.83 235.844L2688.84 235.864L3203.54 -26.5427L3200.82 -31.8888L2726.11 210.131L2726.1 210.111L2211.39 472.518L2211.42 472.574L1738.14 713.866L1738.02 713.641L1223.32 976.048L1226.04 981.394L1720.29 729.416L1720.4 729.641L2235.11 467.234L2235.08 467.178L2688.83 235.844ZM2661.56 229.546L2661.57 229.565L3176.28 -32.8415L3173.55 -38.1875L2698.84 203.832L2698.83 203.812L2184.13 466.219L2184.16 466.276L1710.87 707.567L1710.75 707.343L1196.05 969.749L1198.77 975.095L1693.02 723.118L1693.13 723.342L2207.84 460.935L2207.81 460.879L2661.56 229.546ZM2634.3 223.247L2634.31 223.266L3149.01 -39.1402L3146.29 -44.4863L2671.57 197.533L2671.56 197.514L2156.86 459.92L2156.89 459.977L1683.6 701.268L1683.49 701.044L1168.78 963.45L1171.51 968.797L1665.75 716.819L1665.87 717.043L2180.57 454.637L2180.54 454.58L2634.3 223.247ZM2607.03 216.948L2607.04 216.968L3121.74 -45.4389L3119.02 -50.785L2644.31 191.234L2644.3 191.215L2129.59 453.621L2129.62 453.678L1656.33 694.969L1656.22 694.745L1141.52 957.152L1144.24 962.498L1638.49 710.52L1638.6 710.744L2153.3 448.338L2153.28 448.281L2607.03 216.948ZM2579.76 210.649L2579.77 210.669L3094.48 -51.7376L3091.75 -57.0837L2617.04 184.936L2617.03 184.916L2102.33 447.323L2102.35 447.379L1629.07 688.671L1628.95 688.447L1114.25 950.853L1116.97 956.199L1611.22 704.221L1611.33 704.446L2126.04 442.039L2126.01 441.983L2579.76 210.649ZM2552.5 204.351L2552.51 204.37L3067.21 -58.0364L3064.49 -63.3825L2589.77 178.637L2589.76 178.617L2075.06 441.024L2075.09 441.081L1601.8 682.372L1601.69 682.148L1086.98 944.554L1089.7 949.9L1583.95 697.923L1584.07 698.147L2098.77 435.74L2098.74 435.684L2552.5 204.351ZM2525.23 198.052L2525.24 198.071L3039.94 -64.3351L3037.22 -69.6812L2562.51 172.338L2562.5 172.319L2047.79 434.725L2047.82 434.782L1574.53 676.073L1574.42 675.849L1059.72 938.256L1062.44 943.602L1556.69 691.624L1556.8 691.848L2071.5 429.442L2071.47 429.385L2525.23 198.052ZM2497.96 191.753L2497.97 191.773L3012.68 -70.6338L3009.95 -75.9799L2535.24 166.039L2535.23 166.02L2020.52 428.427L2020.55 428.483L1547.27 669.775L1547.15 669.55L1032.45 931.957L1035.17 937.303L1529.42 685.325L1529.53 685.549L2044.24 423.143L2044.21 423.086L2497.96 191.753ZM2470.69 185.455L2470.7 185.474L2985.41 -76.9326L2982.69 -82.2786L2507.97 159.741L2507.96 159.721L1993.26 422.128L1993.29 422.184L1520 663.476L1519.89 663.252L1005.18 925.658L1007.9 931.004L1502.15 679.026L1502.27 679.251L2016.97 416.844L2016.94 416.788L2470.69 185.455ZM2443.43 179.156L2443.44 179.175L2958.14 -83.2313L2955.42 -88.5774L2480.7 153.442L2480.69 153.423L1965.99 415.829L1966.02 415.886L1492.73 657.177L1492.62 656.953L977.915 919.359L980.637 924.705L1474.88 672.728L1475 672.952L1989.7 410.546L1989.67 410.489L2443.43 179.156ZM2416.16 172.857L2416.17 172.876L2930.87 -89.53L2928.15 -94.8761L2453.44 147.143L2453.43 147.124L1938.72 409.53L1938.75 409.587L1465.47 650.879L1465.35 650.654L950.648 913.061L953.37 918.407L1447.62 666.429L1447.73 666.653L1962.44 404.247L1962.41 404.19L2416.16 172.857ZM2388.89 166.558L2388.9 166.578L2903.61 -95.8287L2900.88 -101.175L2426.17 140.845L2426.16 140.825L1911.46 403.232L1911.49 403.288L1438.2 644.58L1438.08 644.355L923.381 906.762L926.103 912.108L1420.35 660.13L1420.47 660.355L1935.17 397.948L1935.14 397.892L2388.89 166.558Z" fill="url(#paint3_linear)"/>
</g>
</g>
<path opacity="0.674215" d="M1000 0L0 0L0 691L1000 691L1000 0Z" fill="url(#paint4_radial)"/>
<defs>
<filter id="filter0_f" x="-62.1875" y="104.151" width="1037.14" height="938.462" filterUnits="userSpaceOnUse" color-interpolation-filters="sRGB">
<feFlood flood-opacity="0" result="BackgroundImageFix"/>
<feBlend mode="normal" in="SourceGraphic" in2="BackgroundImageFix" result="shape"/>
<feGaussianBlur stdDeviation="11" result="effect1_foregroundBlur"/>
</filter>
<linearGradient id="paint0_linear" x1="2058" y1="157" x2="1495.04" y2="1483.59" gradientUnits="userSpaceOnUse">
<stop stop-color="#47D7AC"/>
<stop offset="0.755208" stop-color="#2443FC"/>
<stop offset="1" stop-color="#152791"/>
</linearGradient>
<linearGradient id="paint1_linear" x1="2138.45" y1="286.64" x2="1449.35" y2="1872.42" gradientUnits="userSpaceOnUse">
<stop stop-color="#47D7AC"/>
<stop offset="0.455151" stop-color="#2443FC"/>
<stop offset="1" stop-color="#152791"/>
</linearGradient>
<radialGradient id="paint2_radial" cx="0" cy="0" r="1" gradientUnits="userSpaceOnUse" gradientTransform="translate(409.893 918.142) rotate(-126.385) scale(489.683)">
<stop stop-color="#6FCEA6"/>
<stop offset="1" stop-color="#ADF4CA" stop-opacity="0"/>
</radialGradient>
<linearGradient id="paint3_linear" x1="1401" y1="1077.5" x2="1633.99" y2="497.189" gradientUnits="userSpaceOnUse">
<stop stop-color="#54D5AE"/>
<stop offset="0.286458" stop-color="#13DFD3"/>
<stop offset="0.755208" stop-color="#4758E7"/>
<stop offset="1" stop-color="#0032E6"/>
</linearGradient>
<radialGradient id="paint4_radial" cx="0" cy="0" r="1" gradientUnits="userSpaceOnUse" gradientTransform="translate(-84.1586 141.457) rotate(64.4102) scale(548.329 531.644)">
<stop stop-color="#58DBB4"/>
<stop offset="0.359445" stop-color="#52DDD0" stop-opacity="0.636139"/>
<stop offset="1" stop-color="#ADF4CA" stop-opacity="0"/>
</radialGradient>
<clipPath id="clip0">
<rect width="1725" height="1300" fill="white" transform="translate(2641 1302) rotate(-180)"/>
</clipPath>
</defs>
</svg>
